# xmcd
#
# Track frame offsets:
#  150
#  14562
#  57170
#
# Disc length: 1075 seconds
#
# Revision: 0
# Processed by: cddbd v1.5.1PL0 Copyright (c) Steve Scherf et al.
# Submitted via: Collectorz.com Music Collector 6.9
#
DISCID=1f043103
DTITLE=Supafly vs. Fishbowl - Let's get down
DYEAR=2005
DGENRE=Dance
TTITLE0=Let's get down
TTITLE1=Let's get down
TTITLE2=Data track
EXTD=
EXTT0=
EXTT1=
EXTT2=
PLAYORDER=
